<svg width="16" height="18" viewBox="0 0 16 18" fill="none" xmlns="http://www.w3.org/2000/svg">
<path d="M4.48504 0.765608C4.27945 0.44792 3.88753 0.306477 3.52657 0.41931L2.2952 0.804259C1.92414 0.920212 1.68068 1.27421 1.70539 1.6615L2.03317 6.84432C2.04399 7.01594 2.00222 7.18672 1.91332 7.33441L0.629407 9.45158C0.547475 9.58683 0.505753 9.74139 0.508044 9.89989C0.512674 10.2261 0.521204 10.8522 0.528174 11.5912H6.53344V13.2144H0.537434C0.538945 13.6125 0.538945 14.0068 0.537434 14.3739H6.53344V15.9972H0.504193C0.453163 16.9216 0.879102 17.3344 1.17125 17.5068C1.2988 17.5825 1.44493 17.6204 1.59334 17.6204H6.85035C7.31567 17.6204 7.69292 17.2432 7.69292 16.7778V5.96539C7.69292 5.80314 7.64573 5.64386 7.55761 5.50782L4.48504 0.765608Z" fill="white"/>
<path d="M15.4953 15.9972H9.34V14.374H15.4614C15.4598 14.0067 15.4598 13.6125 15.4614 13.2145H9.34V11.5912H15.4708C15.4779 10.8522 15.4866 10.2261 15.4913 9.89991C15.4937 9.74145 15.4511 9.58685 15.3674 9.4516L14.0567 7.33443C13.9659 7.18674 13.9233 7.01596 13.9344 6.84434L14.2689 1.66152C14.2942 1.27423 14.0457 0.920232 13.6669 0.804279L12.4097 0.41933C12.0412 0.306448 11.6411 0.44794 11.4312 0.765628L8.29439 5.50784C8.20441 5.64388 8.15625 5.80311 8.15625 5.96546V16.7779C8.15625 17.2432 8.54134 17.6204 9.01642 17.6204H14.3834C14.5349 17.6204 14.6841 17.5826 14.8143 17.5068C15.1126 17.3344 15.5474 16.9217 15.4953 15.9972Z" fill="white"/>
</svg>
