<svg width="28" height="28" viewBox="0 0 28 28" fill="none" xmlns="http://www.w3.org/2000/svg">
<path d="M6 9C6 8.44772 6.44772 8 7 8H9C9.55228 8 10 8.44772 10 9V20C10 20.5523 9.55228 21 9 21H7C6.44772 21 6 20.5523 6 20V9Z" fill="white"/>
<path d="M12 13C12 12.4477 12.4477 12 13 12H15C15.5523 12 16 12.4477 16 13V20C16 20.5523 15.5523 21 15 21H13C12.4477 21 12 20.5523 12 20V13Z" fill="white"/>
<path d="M18 16C18 15.4477 18.4477 15 19 15H21C21.5523 15 22 15.4477 22 16V20C22 20.5523 21.5523 21 21 21H19C18.4477 21 18 20.5523 18 20V16Z" fill="white"/>
</svg>
